<?xml version="1.0" encoding="UTF-8"?>
<svg version="1.1" xmlns="http://www.w3.org/2000/svg" width="271" height="205">
<path d="M0 0 C0.88300781 0.02707031 1.76601562 0.05414063 2.67578125 0.08203125 C3.67158203 0.13423828 3.67158203 0.13423828 4.6875 0.1875 C5.51184899 4.50571342 5.81610806 8.58292165 5.8203125 12.9765625 C5.82229141 13.98550568 5.82229141 13.98550568 5.8243103 15.01483154 C5.82625397 17.2807649 5.81978422 19.5465786 5.8125 21.8125 C5.81161377 22.60054016 5.81072754 23.38858032 5.80981445 24.20050049 C5.77555147 50.86435317 5.18215541 77.52910683 4.6875 104.1875 C14.5875 104.1875 24.4875 104.1875 34.6875 104.1875 C34.6875 95.6075 34.6875 87.0275 34.6875 78.1875 C41.50433168 75.91522277 41.50433168 75.91522277 45.5 75.5 C46.26957031 75.41363281 47.03914063 75.32726562 47.83203125 75.23828125 C48.44433594 75.22152344 49.05664062 75.20476562 49.6875 75.1875 C50.6875 76.1875 50.6875 76.1875 50.80102539 78.87133789 C50.79578857 80.03914795 50.79055176 81.20695801 50.78515625 82.41015625 C50.78193359 83.67021484 50.77871094 84.93027344 50.77539062 86.22851562 C50.76703403 87.56901109 50.75856907 88.90950588 50.75 90.25 C50.7449866 91.59439942 50.74042342 92.9388006 50.73632812 94.28320312 C50.72449497 97.58465433 50.70655886 100.8860826 50.6875 104.1875 C55.3075 104.1875 59.9275 104.1875 64.6875 104.1875 C64.62949219 102.41761719 64.57148438 100.64773437 64.51171875 98.82421875 C64.46482847 96.50783879 64.41932754 94.19143042 64.375 91.875 C64.33310547 90.70775391 64.29121094 89.54050781 64.24804688 88.33789062 C64.23193359 87.21962891 64.21582031 86.10136719 64.19921875 84.94921875 C64.15994263 83.4017395 64.15994263 83.4017395 64.11987305 81.82299805 C64.6875 79.1875 64.6875 79.1875 67.05297852 77.36157227 C69.7994881 76.1375926 71.94967235 75.67008539 74.9375 75.4375 C75.80890625 75.36015625 76.6803125 75.2828125 77.578125 75.203125 C78.27421875 75.19796875 78.9703125 75.1928125 79.6875 75.1875 C81.3528214 76.8528214 80.81753082 78.85567571 80.8203125 81.140625 C80.82160156 82.15253906 80.82289063 83.16445312 80.82421875 84.20703125 C80.82035156 85.27308594 80.81648438 86.33914062 80.8125 87.4375 C80.81636719 88.48808594 80.82023437 89.53867188 80.82421875 90.62109375 C80.82292969 91.63816406 80.82164062 92.65523438 80.8203125 93.703125 C80.81918457 94.63415039 80.81805664 95.56517578 80.81689453 96.52441406 C80.6875 99.1875 80.6875 99.1875 79.6875 104.1875 C84.3075 104.1875 88.9275 104.1875 93.6875 104.1875 C94.0175 95.6075 94.3475 87.0275 94.6875 78.1875 C98.8321842 76.52962632 101.22100085 75.87182524 105.5 75.5625 C106.47582031 75.48773438 107.45164062 75.41296875 108.45703125 75.3359375 C109.19308594 75.28695312 109.92914063 75.23796875 110.6875 75.1875 C110.73689701 81.11400126 110.77321817 87.04038297 110.79736328 92.96704102 C110.80742773 94.98366381 110.82108047 97.00027199 110.83837891 99.0168457 C110.86260769 101.91361089 110.87397859 104.81018331 110.8828125 107.70703125 C110.89313507 108.61024612 110.90345764 109.513461 110.91409302 110.44404602 C110.91424408 111.28469101 110.91439514 112.125336 110.91455078 112.99145508 C110.918992 113.73091873 110.92343323 114.47038239 110.92800903 115.23225403 C110.6875 117.1875 110.6875 117.1875 108.6875 120.1875 C106.60134792 120.5594368 106.60134792 120.5594368 103.97398376 120.55499268 C102.97980942 120.56056183 101.98563507 120.56613098 100.96133423 120.5718689 C99.86670868 120.56265411 98.77208313 120.55343933 97.64428711 120.54394531 C96.49468002 120.54598969 95.34507294 120.54803406 94.16062927 120.55014038 C90.34520779 120.55315851 86.53021415 120.53464104 82.71484375 120.515625 C80.07450976 120.51256932 77.43417416 120.51069175 74.7938385 120.50994873 C69.25467361 120.50625412 63.7156325 120.49127616 58.17651367 120.46875 C51.05828517 120.4398617 43.94015632 120.4295259 36.82187557 120.4250679 C31.36856442 120.42152007 25.91527572 120.41110998 20.46197701 120.39919281 C17.83639273 120.3934755 15.21080618 120.38872167 12.58521843 120.38492584 C8.92387777 120.37808907 5.26262972 120.36446937 1.60131836 120.34863281 C-0.04365631 120.34695602 -0.04365631 120.34695602 -1.72186279 120.34524536 C-2.71321732 120.33953522 -3.70457184 120.33382507 -4.72596741 120.32794189 C-5.59262055 120.32496723 -6.4592737 120.32199257 -7.35218906 120.31892776 C-9.3125 120.1875 -9.3125 120.1875 -10.3125 119.1875 C-10.41907831 117.68911748 -10.45655969 116.18576017 -10.46640015 114.68362427 C-10.47500061 113.71054321 -10.48360107 112.73746216 -10.49246216 111.7348938 C-10.49672211 110.65851654 -10.50098206 109.58213928 -10.50537109 108.47314453 C-10.51354858 107.3464032 -10.52172607 106.21966187 -10.53015137 105.05877686 C-10.55506059 101.31262759 -10.57153398 97.5665163 -10.5859375 93.8203125 C-10.59126118 92.5451968 -10.59658485 91.2700811 -10.60206985 89.95632553 C-10.62331009 84.59996896 -10.64244054 79.2436258 -10.65369225 73.88723946 C-10.66993968 66.20231562 -10.70313108 58.51789679 -10.76009309 50.83316338 C-10.80340665 44.78418892 -10.81943154 38.73544505 -10.82582474 32.686306 C-10.83256447 30.10978472 -10.8478563 27.53327158 -10.87171555 24.95685196 C-10.90314836 21.35772038 -10.90343637 17.75987591 -10.89599609 14.16064453 C-10.91240143 13.08831573 -10.92880676 12.01598694 -10.94570923 10.91116333 C-10.92301624 8.24119339 -10.86959527 5.79844222 -10.3125 3.1875 C-7.01620245 0.17185585 -4.38247916 -0.17529917 0 0 Z " fill="#9E8F96" transform="translate(132.3125,37.8125)"/>
<path d="M0 0 C2.8125 2.5 2.8125 2.5 5 5 C5 5.66 5 6.32 5 7 C4.175 6.835 3.35 6.67 2.5 6.5 C-5.34799963 5.19372931 -5.34799963 5.19372931 -12.5 8 C-15.19205473 11.22630494 -15.19205473 11.22630494 -15.4375 15.0625 C-15.293125 16.361875 -15.14875 17.66125 -15 19 C-14.9175 19.78375 -14.835 20.5675 -14.75 21.375 C-13.68715414 23.67783269 -12.30744048 24.0910083 -10 25 C-9.34 25.33 -8.68 25.66 -8 26 C-6.18828902 26.15306901 -4.3716206 26.24946661 -2.5546875 26.31640625 C-1.47832031 26.35830078 -0.40195312 26.40019531 0.70703125 26.44335938 C1.83496094 26.48267578 2.96289062 26.52199219 4.125 26.5625 C5.26066406 26.60568359 6.39632812 26.64886719 7.56640625 26.69335938 C10.37747768 26.7996604 13.18863945 26.90169405 16 27 C15.28724998 31.01930493 14.16701499 33.77027401 12 37.25 C11.46375 38.12140625 10.9275 38.9928125 10.375 39.890625 C9 42 9 42 8 43 C4.90645863 43.16976751 1.82044298 43.29703117 -1.27734375 43.34179688 C-6.11783942 43.54625789 -8.58895069 44.58272615 -12 48 C-14.50031654 51.75047482 -14.53603554 53.55856266 -14 58 C-10.83641696 62.21811072 -7.06690177 64.67301654 -2 66 C2.85880265 66.46210528 7.68482364 66.46415397 12.5625 66.4375 C14.51446289 66.4674707 14.51446289 66.4674707 16.50585938 66.49804688 C17.76333984 66.49740234 19.02082031 66.49675781 20.31640625 66.49609375 C22.02485718 66.49887329 22.02485718 66.49887329 23.76782227 66.50170898 C27.8857278 65.86251449 29.91613498 64.81243818 33 62 C35.55194201 55.42387727 35.34189849 48.60962097 35.4140625 41.625 C35.43342865 40.4599292 35.4527948 39.2948584 35.4727478 38.09448242 C35.53222524 34.39639462 35.57880164 30.69827515 35.625 27 C35.66320905 24.48305982 35.70226246 21.9661323 35.7421875 19.44921875 C35.83790053 13.29959213 35.92304014 7.14988837 36 1 C39.49733566 -0.45576048 42.46798988 -1.3421368 46.25 -1.6875 C47.12140625 -1.77386719 47.9928125 -1.86023438 48.890625 -1.94921875 C49.93476563 -1.97435547 49.93476563 -1.97435547 51 -2 C52.71000766 -0.28999234 52.15394531 1.94162823 52.17700195 4.27905273 C52.19625481 5.97232948 52.19625481 5.97232948 52.21589661 7.69981384 C52.22328354 8.93196121 52.23067047 10.16410858 52.23828125 11.43359375 C52.246353 12.69583267 52.25442474 13.95807159 52.26274109 15.25856018 C52.276609 17.9412098 52.28761509 20.62373546 52.29516602 23.30639648 C52.30615566 26.71913577 52.34045545 30.13120939 52.38033772 33.54371548 C52.41303419 36.8194414 52.41730548 40.09522956 52.42578125 43.37109375 C52.44328934 44.58502304 52.46079742 45.79895233 52.47883606 47.04966736 C52.45765884 55.42640504 51.23963759 62.44051006 46.3125 69.375 C38.58796677 74.80305038 31.39953299 76.06868075 22 75 C19.52092427 74.19408139 17.35962789 73.13065503 15 72 C12.13201368 72.20985266 10.00762107 72.99709621 7.32421875 74.01953125 C-1.3279173 76.57145387 -10.57259082 76.22414767 -18.6875 72.3125 C-25.34790494 68.43177626 -29.37241134 64.88953622 -31.5625 57.3984375 C-32.77129618 50.77164416 -31.05542471 44.86641545 -28 39 C-27.01 38.505 -27.01 38.505 -26 38 C-25.67 37.01 -25.34 36.02 -25 35 C-25.62261719 34.75378906 -26.24523438 34.50757813 -26.88671875 34.25390625 C-30.1244187 32.33283105 -30.50390292 29.98976547 -31.52734375 26.5 C-32.77812829 19.88428013 -31.15014029 12.90005785 -28 7 C-25.5 4.1875 -25.5 4.1875 -23 2 C-22.54625 1.443125 -22.0925 0.88625 -21.625 0.3125 C-15.55842471 -4.58742619 -6.48422724 -3.5049877 0 0 Z " fill="#7B7B97" transform="translate(63,115)"/>
<path d="M0 0 C0 9.24 0 18.48 0 28 C4.62 28 9.24 28 14 28 C13.94199219 26.23011719 13.88398438 24.46023437 13.82421875 22.63671875 C13.77732847 20.32033879 13.73182754 18.00393042 13.6875 15.6875 C13.64560547 14.52025391 13.60371094 13.35300781 13.56054688 12.15039062 C13.54443359 11.03212891 13.52832031 9.91386719 13.51171875 8.76171875 C13.48553467 7.73006592 13.45935059 6.69841309 13.43237305 5.63549805 C14 3 14 3 16.36547852 1.17407227 C19.1119881 -0.0499074 21.26217235 -0.51741461 24.25 -0.75 C25.12140625 -0.82734375 25.9928125 -0.9046875 26.890625 -0.984375 C27.58671875 -0.98953125 28.2828125 -0.9946875 29 -1 C30.6653214 0.6653214 30.13003082 2.66817571 30.1328125 4.953125 C30.13474609 6.47099609 30.13474609 6.47099609 30.13671875 8.01953125 C30.13285156 9.08558594 30.12898438 10.15164062 30.125 11.25 C30.13080078 12.82587891 30.13080078 12.82587891 30.13671875 14.43359375 C30.13542969 15.45066406 30.13414062 16.46773437 30.1328125 17.515625 C30.13168457 18.44665039 30.13055664 19.37767578 30.12939453 20.33691406 C30 23 30 23 29 28 C33.62 28 38.24 28 43 28 C43.33 19.42 43.66 10.84 44 2 C48.1446842 0.34212632 50.53350085 -0.31567476 54.8125 -0.625 C55.78832031 -0.69976562 56.76414062 -0.77453125 57.76953125 -0.8515625 C58.50558594 -0.90054688 59.24164063 -0.94953125 60 -1 C60.04939701 4.92650126 60.08571817 10.85288297 60.10986328 16.77954102 C60.11992773 18.79616381 60.13358047 20.81277199 60.15087891 22.8293457 C60.17510769 25.72611089 60.18647859 28.62268331 60.1953125 31.51953125 C60.20563507 32.42274612 60.21595764 33.325961 60.22659302 34.25654602 C60.22674408 35.09719101 60.22689514 35.937836 60.22705078 36.80395508 C60.231492 37.54341873 60.23593323 38.28288239 60.24050903 39.04475403 C60 41 60 41 58 44 C55.93722534 44.36076355 55.93722534 44.36076355 53.36669922 44.34057617 C52.40585419 44.34034958 51.44500916 44.34012299 50.45504761 44.33988953 C49.41542877 44.32440567 48.37580994 44.30892181 47.3046875 44.29296875 C46.24210724 44.28872391 45.17952698 44.28447906 44.08474731 44.28010559 C40.68124354 44.26327389 37.27832567 44.22561303 33.875 44.1875 C31.57162312 44.17245899 29.26823698 44.15876958 26.96484375 44.14648438 C21.30969495 44.11335574 15.65488932 44.06311197 10 44 C10.33 43.01 10.66 42.02 11 41 C9.329375 41.2475 9.329375 41.2475 7.625 41.5 C2.74489662 42.12094505 -2.08861948 42.09057874 -7 42 C-7 41.34 -7 40.68 -7 40 C-7.928125 40.515625 -8.85625 41.03125 -9.8125 41.5625 C-13 43 -13 43 -16 42 C-12.93922229 38.15216516 -10.05957421 34.85267377 -6 32 C-5.34 32 -4.68 32 -4 32 C-4 23.09 -4 14.18 -4 5 C-4.66 4.67 -5.32 4.34 -6 4 C-6 4.66 -6 5.32 -6 6 C-9.75 7.125 -9.75 7.125 -12 6 C-12.66 7.32 -13.32 8.64 -14 10 C-14.66 10 -15.32 10 -16 10 C-16 7.36 -16 4.72 -16 2 C-10.33942833 -0.02163274 -5.92545784 -1.48136446 0 0 Z " fill="#C09877" transform="translate(183,114)"/>
<path d="M0 0 C2.8125 2.5 2.8125 2.5 5 5 C5 5.66 5 6.32 5 7 C4.175 6.835 3.35 6.67 2.5 6.5 C-5.34799963 5.19372931 -5.34799963 5.19372931 -12.5 8 C-15.19205473 11.22630494 -15.19205473 11.22630494 -15.4375 15.0625 C-15.12345958 19.14046699 -15.12345958 19.14046699 -14 23 C-13.01 23.33 -12.02 23.66 -11 24 C-11 24.66 -11 25.32 -11 26 C-9.02 26.99 -7.04 27.98 -5 29 C-5 29.66 -5 30.32 -5 31 C-3.35 31 -1.7 31 0 31 C0 30.34 0 29.68 0 29 C2.97 29 5.94 29 9 29 C10 33 10 33 10 35 C6.78408015 38.38331 4.65813549 40.29882855 -0.0859375 40.48828125 C-1.51644898 40.45547135 -2.94657704 40.39644891 -4.375 40.3125 C-5.47908203 40.27866211 -5.47908203 40.27866211 -6.60546875 40.24414062 C-8.40453842 40.18572927 -10.20254753 40.09606337 -12 40 C-12.33 41.65 -12.66 43.3 -13 45 C-15.97 45.495 -15.97 45.495 -19 46 C-19.495 48.475 -19.495 48.475 -20 51 C-19.01 51.66 -18.02 52.32 -17 53 C-16.66073053 55.33247761 -16.32759934 57.66585471 -16 60 C-14.5420814 61.79385992 -14.5420814 61.79385992 -13 63 C-13 63.66 -13 64.32 -13 65 C-5.99370876 66.8849413 0.76410027 68.39700836 8 69 C7.505 70.485 7.505 70.485 7 72 C-2.78074994 73.6863362 -13.65598764 73.1804749 -22.4453125 68.14453125 C-24.81102986 66.40293531 -26.43885424 64.47181413 -28 62 C-28 61.34 -28 60.68 -28 60 C-28.99 59.67 -29.98 59.34 -31 59 C-32.47697049 51.45460729 -31.86122449 45.75373188 -28 39 C-27.01 38.505 -27.01 38.505 -26 38 C-25.67 37.01 -25.34 36.02 -25 35 C-25.62261719 34.75378906 -26.24523438 34.50757813 -26.88671875 34.25390625 C-30.1244187 32.33283105 -30.50390292 29.98976547 -31.52734375 26.5 C-32.77812829 19.88428013 -31.15014029 12.90005785 -28 7 C-25.5 4.1875 -25.5 4.1875 -23 2 C-22.54625 1.443125 -22.0925 0.88625 -21.625 0.3125 C-15.55842471 -4.58742619 -6.48422724 -3.5049877 0 0 Z " fill="#5067A7" transform="translate(63,115)"/>
<path d="M0 0 C0.04939701 5.92650126 0.08571817 11.85288297 0.10986328 17.77954102 C0.11992773 19.79616381 0.13358047 21.81277199 0.15087891 23.8293457 C0.17510769 26.72611089 0.18647859 29.62268331 0.1953125 32.51953125 C0.20563507 33.42274612 0.21595764 34.325961 0.22659302 35.25654602 C0.22674408 36.09719101 0.22689514 36.937836 0.22705078 37.80395508 C0.231492 38.54341873 0.23593323 39.28288239 0.24050903 40.04475403 C0 42 0 42 -2 45 C-6.29 44.67 -10.58 44.34 -15 44 C-15 43.67 -15 43.34 -15 43 C-12.03 42.505 -12.03 42.505 -9 42 C-8.77057986 39.68183456 -8.77057986 39.68183456 -11.3125 37.5625 C-13.75521988 35.13194646 -13.75521988 35.13194646 -15.66333008 33.75463867 C-17.73905932 31.02984122 -17.23583909 28.72792289 -17.07421875 25.36328125 C-17.01943359 24.06455078 -16.96464844 22.76582031 -16.90820312 21.42773438 C-16.83497036 20.05597166 -16.7613983 18.68422702 -16.6875 17.3125 C-16.62422838 15.92910079 -16.56236272 14.54563651 -16.50195312 13.16210938 C-16.3484777 9.7738442 -16.18058886 6.38691079 -16 3 C-10.65776305 0.74581425 -5.80566521 0 0 0 Z " fill="#D4A267" transform="translate(243,113)"/>
<path d="M0 0 C0 19.14 0 38.28 0 58 C-0.66 57.67 -1.32 57.34 -2 57 C-1.99097656 55.7934375 -1.98195313 54.586875 -1.97265625 53.34375 C-1.75947332 42.97120894 -1.75947332 42.97120894 -6.3125 34.0625 C-8.07627272 32.3885967 -8.07627272 32.3885967 -10 31 C-11.32 30.01 -12.64 29.02 -14 28 C-14 37.24 -14 46.48 -14 56 C-15.9065847 52.1868306 -16.24737082 50.97942314 -16.22705078 46.95605469 C-16.22682419 45.45495148 -16.22682419 45.45495148 -16.22659302 43.92352295 C-16.21627045 42.85047913 -16.20594788 41.7774353 -16.1953125 40.671875 C-16.1924826 39.56773254 -16.18965271 38.46359009 -16.18673706 37.32598877 C-16.17554489 33.8005488 -16.15044175 30.27536315 -16.125 26.75 C-16.11496897 24.35937867 -16.10584333 21.96875336 -16.09765625 19.578125 C-16.0756087 13.71866327 -16.04214053 7.85934981 -16 2 C-10.45181652 -0.33156939 -5.94754855 -1.48688714 0 0 Z " fill="#7F7D96" transform="translate(115,114)"/>
<path d="M0 0 C0.81549316 0.23771118 0.81549316 0.23771118 1.64746094 0.48022461 C4.34402563 1.07600981 6.88069895 1.21364305 9.640625 1.31640625 C10.71054687 1.35830078 11.78046875 1.40019531 12.8828125 1.44335938 C13.99398437 1.48267578 15.10515625 1.52199219 16.25 1.5625 C17.93996094 1.62727539 17.93996094 1.62727539 19.6640625 1.69335938 C22.44258954 1.79932015 25.22120391 1.90139142 28 2 C27.28724998 6.01930493 26.16701499 8.77027401 24 12.25 C23.46375 13.12140625 22.9275 13.9928125 22.375 14.890625 C21 17 21 17 20 18 C16.90645863 18.16976751 13.82044298 18.29703117 10.72265625 18.34179688 C5.88216058 18.54625789 3.41104931 19.58272615 0 23 C-2.50031654 26.75047482 -2.53603554 28.55856266 -2 33 C1.14583138 37.19444183 4.95419167 39.66626508 10 41 C13.66075246 41.50884953 17.31000615 41.80649218 21 42 C21 42.33 21 42.66 21 43 C5.61028693 43.71395576 5.61028693 43.71395576 -1 40 C-1.37590176 38.67803678 -1.71239695 37.3439395 -2 36 C-2.99 35.67 -3.98 35.34 -5 35 C-5 32.69 -5 30.38 -5 28 C-6.32 27.34 -7.64 26.68 -9 26 C-8.34 24.02 -7.68 22.04 -7 20 C-5.02 20 -3.04 20 -1 20 C-0.67 18.35 -0.34 16.7 0 15 C4.1469216 14.40758263 8.12158038 13.93779711 12.3125 14 C15.94400133 14.19434831 15.94400133 14.19434831 19 13 C19.33 12.01 19.66 11.02 20 10 C20.66 10 21.32 10 22 10 C21.67 8.35 21.34 6.7 21 5 C18.03 4.67 15.06 4.34 12 4 C12 4.66 12 5.32 12 6 C10.35 6 8.7 6 7 6 C6.67 5.34 6.34 4.68 6 4 C4.02477154 2.95191959 2.02518491 1.9479589 0 1 C0 0.67 0 0.34 0 0 Z " fill="#6876A3" transform="translate(51,140)"/>
<path d="M0 0 C-0.375 1.9375 -0.375 1.9375 -1 4 C-1.99 4.495 -1.99 4.495 -3 5 C-4.8577557 12.55087799 -3.4847814 19.31722791 -1.1875 26.5625 C-0.89312369 30.38939207 -2.47946704 33.53799557 -4 37 C-4.33 37 -4.66 37 -5 37 C-4.979375 36.05125 -4.95875 35.1025 -4.9375 34.125 C-4.77448174 31.09333717 -4.77448174 31.09333717 -6 29 C-6 29.99 -6 30.98 -6 32 C-6.31710938 32.95003906 -6.63421875 33.90007812 -6.9609375 34.87890625 C-8.61517457 40.42366384 -8.46830971 46.19545384 -8.625 51.9375 C-8.66367188 53.09830078 -8.70234375 54.25910156 -8.7421875 55.45507812 C-8.83595387 58.30323169 -8.92165917 61.15138738 -9 64 C-9.33 64 -9.66 64 -10 64 C-10.11580856 56.09849468 -10.20467034 48.19734336 -10.25906086 40.29519939 C-10.28516481 36.62593823 -10.32057487 32.95725727 -10.37719727 29.28833008 C-10.43149248 25.74807341 -10.46141453 22.208375 -10.47438622 18.66773415 C-10.4881329 16.65840346 -10.52717084 14.64929769 -10.56648254 12.64030457 C-10.5668602 11.41926529 -10.56723785 10.19822601 -10.56762695 8.94018555 C-10.57873001 7.86318893 -10.58983307 6.78619232 -10.60127258 5.67655945 C-10 3 -10 3 -7.64030457 1.14045715 C-4.84634399 -0.06637041 -3.00752733 -0.25778806 0 0 Z " fill="#BFB6C6" transform="translate(132,38)"/>
<path d="M0 0 C0 9.24 0 18.48 0 28 C4.62 28 9.24 28 14 28 C14 25.69 14 23.38 14 21 C14.66 20.67 15.32 20.34 16 20 C16 23.96 16 27.92 16 32 C9.73 32.33 3.46 32.66 -3 33 C-2.34 32.01 -1.68 31.02 -1 30 C-1.99 30 -2.98 30 -4 30 C-4 21.75 -4 13.5 -4 5 C-4.66 4.67 -5.32 4.34 -6 4 C-6 4.66 -6 5.32 -6 6 C-9.75 7.125 -9.75 7.125 -12 6 C-12.66 7.32 -13.32 8.64 -14 10 C-14.66 10 -15.32 10 -16 10 C-16 7.36 -16 4.72 -16 2 C-10.33942833 -0.02163274 -5.92545784 -1.48136446 0 0 Z " fill="#B19B8D" transform="translate(183,114)"/>
<path d="M0 0 C0.04939701 5.92650126 0.08571817 11.85288297 0.10986328 17.77954102 C0.11992773 19.79616381 0.13358047 21.81277199 0.15087891 23.8293457 C0.17510769 26.72611089 0.18647859 29.62268331 0.1953125 32.51953125 C0.20563507 33.42274612 0.21595764 34.325961 0.22659302 35.25654602 C0.22674408 36.09719101 0.22689514 36.937836 0.22705078 37.80395508 C0.231492 38.54341873 0.23593323 39.28288239 0.24050903 40.04475403 C0 42 0 42 -2 45 C-6.29 44.67 -10.58 44.34 -15 44 C-15 43.67 -15 43.34 -15 43 C-12.03 42.505 -12.03 42.505 -9 42 C-8.77057986 39.68183456 -8.77057986 39.68183456 -11.3125 37.5625 C-13.75521988 35.13194646 -13.75521988 35.13194646 -15.66333008 33.75463867 C-17.73905932 31.02984122 -17.23583909 28.72792289 -17.07421875 25.36328125 C-17.01943359 24.06455078 -16.96464844 22.76582031 -16.90820312 21.42773438 C-16.83497036 20.05597166 -16.7613983 18.68422702 -16.6875 17.3125 C-16.62422838 15.92910079 -16.56236272 14.54563651 -16.50195312 13.16210938 C-16.3484777 9.7738442 -16.18058886 6.38691079 -16 3 C-10.65776305 0.74581425 -5.80566521 0 0 0 Z M-13 4 C-15.79697269 6.79697269 -14.48223295 14.87298202 -14.5625 18.625 C-14.62501953 19.89730469 -14.68753906 21.16960937 -14.75195312 22.48046875 C-15.03707036 29.35100392 -15.03707036 29.35100392 -12.21435547 35.35449219 C-10.08867965 37.23058274 -10.08867965 37.23058274 -7.82788086 38.68115234 C-6 40 -6 40 -5 43 C-3.515 42.505 -3.515 42.505 -2 42 C-2 29.46 -2 16.92 -2 4 C-6.08266686 2.63911105 -8.75928101 3.31601307 -13 4 Z " fill="#D0AD83" transform="translate(243,113)"/>
<path d="M0 0 C0 5.61 0 11.22 0 17 C-0.66 17.33 -1.32 17.66 -2 18 C-2.433125 17.236875 -2.86625 16.47375 -3.3125 15.6875 C-4.73686785 13.41906232 -6.03260097 11.7800277 -8 10 C-10.6905528 11.22007944 -10.6905528 11.22007944 -13 13 C-13.144375 14.155 -13.28875 15.31 -13.4375 16.5 C-13.623125 17.655 -13.80875 18.81 -14 20 C-14.66 20.33 -15.32 20.66 -16 21 C-16.13481759 18.06097651 -16.23399416 15.12810441 -16.3125 12.1875 C-16.35439453 11.35412109 -16.39628906 10.52074219 -16.43945312 9.66210938 C-16.48600337 7.34390715 -16.46876646 5.27178063 -16 3 C-11.36153894 -1.09415185 -5.83697993 -1.45924498 0 0 Z " fill="#D6B69C" transform="translate(213,114)"/>
<path d="M0 0 C2.4375 0.8125 2.4375 0.8125 5 2 C6 5 6 5 5.4375 7.5 C4.66177482 10.2399734 4.66177482 10.2399734 7 13 C6.7578125 15.48046875 6.7578125 15.48046875 6.125 18.1875 C5.92132813 19.08855469 5.71765625 19.98960937 5.5078125 20.91796875 C5.34023438 21.60503906 5.17265625 22.29210937 5 23 C3.17578125 23.59765625 3.17578125 23.59765625 1 24 C-1.90408627 22.38661874 -2.69029025 21.93709378 -4 19 C-4.4236218 12.03100613 -4.0637216 5.83055708 0 0 Z " fill="#4C69AA" transform="translate(38,156)"/>
<path d="M0 0 C0 19.14 0 38.28 0 58 C-0.66 57.67 -1.32 57.34 -2 57 C-1.99097656 55.7934375 -1.98195313 54.586875 -1.97265625 53.34375 C-1.74098917 43.03229428 -1.74098917 43.03229428 -6.25 34.1875 C-7.46628929 33.08657011 -8.71499583 32.01988752 -10 31 C-11.70813115 29.36816255 -13.35428989 27.69558011 -15 26 C-15 25.34 -15 24.68 -15 24 C-11 26 -11 26 -3 34 C-3 23.11 -3 12.22 -3 1 C-7.29 1.99 -11.58 2.98 -16 4 C-15.67 3.01 -15.34 2.02 -15 1 C-13.25215171 0.63536268 -11.50159498 0.2836922 -9.75 -0.0625 C-8.28820312 -0.35833984 -8.28820312 -0.35833984 -6.796875 -0.66015625 C-4 -1 -4 -1 0 0 Z " fill="#8C8C99" transform="translate(115,114)"/>
<path d="M0 0 C0.53625 0.7425 1.0725 1.485 1.625 2.25 C8.16683721 9.82475888 15.78272424 10.90183396 25.25 11.6875 C30.72172709 12.17747774 30.72172709 12.17747774 36 11 C36.33 10.34 36.66 9.68 37 9 C34.03 9 31.06 9 28 9 C28 8.67 28 8.34 28 8 C30.5832412 7.83178895 33.16657699 7.66537483 35.75 7.5 C36.47960937 7.45230469 37.20921875 7.40460938 37.9609375 7.35546875 C41.31810164 7.14183103 44.63436276 7 48 7 C48 7.66 48 8.32 48 9 C48.66 9.33 49.32 9.66 50 10 C50.495 10.99 50.495 10.99 51 12 C50.34 12 49.68 12 49 12 C48.67 12.66 48.34 13.32 48 14 C47.443125 13.649375 46.88625 13.29875 46.3125 12.9375 C42.60469292 11.43433497 39.9435109 12.64344065 36.3125 14.015625 C27.67368427 16.58282024 18.41700153 16.21913085 10.3125 12.3125 C6.26130433 9.96997189 2.78647273 7.78164157 0 4 C0 2.68 0 1.36 0 0 Z " fill="#66739F" transform="translate(34,175)"/>
<path d="M0 0 C0.33 0 0.66 0 1 0 C1 3.63 1 7.26 1 11 C5.62 11 10.24 11 15 11 C15 8.69 15 6.38 15 4 C15.66 3.67 16.32 3.34 17 3 C17 6.96 17 10.92 17 15 C7.595 15.495 7.595 15.495 -2 16 C-1.34 15.01 -0.68 14.02 0 13 C-0.99 13 -1.98 13 -3 13 C-3 10.69 -3 8.38 -3 6 C-2.01 5.67 -1.02 5.34 0 5 C0 3.35 0 1.7 0 0 Z " fill="#AE9382" transform="translate(182,131)"/>
<path d="M0 0 C6.32505669 0.41475782 10.96088619 1.18745439 15.8125 5.5 C18 8 18 8 18 10 C17.175 9.835 16.35 9.67 15.5 9.5 C7.74176782 8.28024719 7.74176782 8.28024719 0.625 11.0625 C-2.45899107 14.51363287 -3.12539526 16.53951582 -4 21 C-4.33 21 -4.66 21 -5 21 C-5.50464541 15.70122324 -4.36521927 13.09283425 -1 9 C2.94937682 5.79780258 6.00165008 5.70597942 11 6 C11 5.34 11 4.68 11 4 C6.71 3.34 2.42 2.68 -2 2 C-1.34 1.34 -0.68 0.68 0 0 Z " fill="#6B76A0" transform="translate(50,112)"/>
<path d="M0 0 C1.73443359 0.27457031 1.73443359 0.27457031 3.50390625 0.5546875 C6.4375 1.125 6.4375 1.125 8.4375 2.125 C8.4375 2.785 8.4375 3.445 8.4375 4.125 C7.75042969 4.18558594 7.06335938 4.24617188 6.35546875 4.30859375 C5.00388672 4.43427734 5.00388672 4.43427734 3.625 4.5625 C2.28501953 4.68431641 2.28501953 4.68431641 0.91796875 4.80859375 C-1.68993559 5.05989767 -1.68993559 5.05989767 -4.5625 6.125 C-4.5625 5.465 -4.5625 4.805 -4.5625 4.125 C-6.8725 4.125 -9.1825 4.125 -11.5625 4.125 C-11.5625 4.785 -11.5625 5.445 -11.5625 6.125 C-13.18589805 7.83384005 -14.85569053 9.49946717 -16.5625 11.125 C-17.2225 11.785 -17.8825 12.445 -18.5625 13.125 C-18.14536812 8.2584614 -16.10784674 6.33269467 -12.5625 3.125 C-12.02625 2.5475 -11.49 1.97 -10.9375 1.375 C-7.54694037 -1.70732694 -4.16171849 -0.67889486 0 0 Z " fill="#5769A2" transform="translate(52.5625,113.875)"/>
<path d="M0 0 C-3.465 2.97 -3.465 2.97 -7 6 C-8.32 5.34 -9.64 4.68 -11 4 C-10.79375 4.598125 -10.5875 5.19625 -10.375 5.8125 C-10 8 -10 8 -12 11 C-12.66 11 -13.32 11 -14 11 C-13.67 11.66 -13.34 12.32 -13 13 C-12.95977609 15.3329866 -12.95679753 17.66706666 -13 20 C-13.66 20.33 -14.32 20.66 -15 21 C-15.13481759 18.06097651 -15.23399416 15.12810441 -15.3125 12.1875 C-15.35439453 11.35412109 -15.39628906 10.52074219 -15.43945312 9.66210938 C-15.48600161 7.34399475 -15.46847178 5.27174367 -15 3 C-10.7975768 -0.71560076 -5.31909234 -1.77303078 0 0 Z " fill="#C0A894" transform="translate(212,114)"/>
<path d="M0 0 C0 10.23 0 20.46 0 31 C-0.33 31 -0.66 31 -1 31 C-1.66 21.1 -2.32 11.2 -3 1 C-7.29 1.99 -11.58 2.98 -16 4 C-15.67 3.01 -15.34 2.02 -15 1 C-13.25215171 0.63536268 -11.50159498 0.2836922 -9.75 -0.0625 C-8.28820312 -0.35833984 -8.28820312 -0.35833984 -6.796875 -0.66015625 C-4 -1 -4 -1 0 0 Z " fill="#8B8A98" transform="translate(115,114)"/>
<path d="M0 0 C0.99 0 1.98 0 3 0 C3 8.25 3 16.5 3 25 C2.01 25 1.02 25 0 25 C0 16.75 0 8.5 0 0 Z " fill="#D79F75" transform="translate(236,121)"/>
<path d="M0 0 C0.54366211 0.15847412 1.08732422 0.31694824 1.64746094 0.48022461 C4.34402563 1.07600981 6.88069895 1.21364305 9.640625 1.31640625 C10.71054687 1.35830078 11.78046875 1.40019531 12.8828125 1.44335938 C13.99398437 1.48267578 15.10515625 1.52199219 16.25 1.5625 C17.93996094 1.62727539 17.93996094 1.62727539 19.6640625 1.69335938 C22.44258954 1.79932015 25.22120391 1.90139142 28 2 C27.125 6.75 27.125 6.75 26 9 C25.34 9 24.68 9 24 9 C24.33 7.68 24.66 6.36 25 5 C20.71 4.67 16.42 4.34 12 4 C12 4.66 12 5.32 12 6 C10.35 6 8.7 6 7 6 C6.67 5.34 6.34 4.68 6 4 C4.02477154 2.95191959 2.02518491 1.9479589 0 1 C0 0.67 0 0.34 0 0 Z " fill="#828DB2" transform="translate(51,140)"/>
<path d="M0 0 C0.66 0.33 1.32 0.66 2 1 C1.67 1.33 1.34 1.66 1 2 C0.72313113 5.13742768 0.76826371 8.28929277 0.75 11.4375 C0.729375 12.32244141 0.70875 13.20738281 0.6875 14.11914062 C0.68234375 14.96541016 0.6771875 15.81167969 0.671875 16.68359375 C0.6625293 17.46275146 0.65318359 18.24190918 0.64355469 19.04467773 C0.76118164 19.68993408 0.87880859 20.33519043 1 21 C1.99 21.66 2.98 22.32 4 23 C4.1875 26.125 4.1875 26.125 4 29 C4.66 29 5.32 29 6 29 C5.67 30.32 5.34 31.64 5 33 C2.05298805 31.89632273 0.8758912 31.44154043 -1 29 C-1.82324667 24.2673145 -1.60634642 19.59965277 -1.4375 14.8125 C-1.41880859 13.50345703 -1.40011719 12.19441406 -1.38085938 10.84570312 C-1.19556878 1.19556878 -1.19556878 1.19556878 0 0 Z " fill="#D0A175" transform="translate(230,117)"/>
<path d="M0 0 C0.33 0 0.66 0 1 0 C1 12.54 1 25.08 1 38 C-0.82092113 34.35815774 -1.2463617 33.43905035 -1.16015625 29.69921875 C-1.1437207 28.48008789 -1.1437207 28.48008789 -1.12695312 27.23632812 C-1.10568359 26.39521484 -1.08441406 25.55410156 -1.0625 24.6875 C-0.94287679 18.98546027 -1.06045176 13.65152504 -2 8 C-2.1875 4.6875 -2.1875 4.6875 -2 2 C-1.34 1.34 -0.68 0.68 0 0 Z " fill="#C1B6C0" transform="translate(137,44)"/>
<path d="M0 0 C0.99 0.99 1.98 1.98 3 3 C2.175 3.474375 1.35 3.94875 0.5 4.4375 C-2.1501057 6.6437035 -2.1501057 6.6437035 -2.26171875 8.953125 C-2.21091234 10.48266533 -2.13685173 12.01156097 -2.04296875 13.5390625 C-1.97375278 17.50325007 -2.99089219 21.18881604 -4 25 C-4.66 24.67 -5.32 24.34 -6 24 C-7.89597171 17.39080286 -6.77433798 12.10956912 -4.10546875 5.93359375 C-3 4 -3 4 -1 3 C-0.67 2.01 -0.34 1.02 0 0 Z " fill="#6F7CAB" transform="translate(38,150)"/>
<path d="M0 0 C0 0.66 0 1.32 0 2 C5.94 1.67 11.88 1.34 18 1 C17.67 1.99 17.34 2.98 17 4 C8.42 4 -0.16 4 -9 4 C-3.66666667 0 -3.66666667 0 0 0 Z " fill="#A8948A" transform="translate(176,154)"/>
<path d="M0 0 C-0.99 1.485 -0.99 1.485 -2 3 C-4.79736328 3.34057617 -4.79736328 3.34057617 -8.3203125 3.29296875 C-9.57714844 3.28330078 -10.83398438 3.27363281 -12.12890625 3.26367188 C-13.44761719 3.23853516 -14.76632813 3.21339844 -16.125 3.1875 C-17.46482903 3.17245483 -18.80467404 3.15876613 -20.14453125 3.14648438 C-23.43008842 3.11102872 -26.71484582 3.06160849 -30 3 C-26.82006692 0.88004462 -25.85194628 0.72905794 -22.18359375 0.62109375 C-21.25482422 0.58693359 -20.32605469 0.55277344 -19.36914062 0.51757812 C-18.40169922 0.49115234 -17.43425781 0.46472656 -16.4375 0.4375 C-14.51940296 0.37767879 -12.60141931 0.31406394 -10.68359375 0.24609375 C-9.83337646 0.22216553 -8.98315918 0.1982373 -8.10717773 0.17358398 C-1.29260976 -0.38778293 -1.29260976 -0.38778293 0 0 Z " fill="#988B88" transform="translate(169,155)"/>
<path d="M0 0 C0.66 0 1.32 0 2 0 C1.67 1.65 1.34 3.3 1 5 C-2.51191483 6.10961564 -5.63334228 6.03443358 -9.296875 5.87890625 C-10.50214844 5.83056641 -11.70742187 5.78222656 -12.94921875 5.73242188 C-14.83060547 5.64831055 -14.83060547 5.64831055 -16.75 5.5625 C-18.01972656 5.51029297 -19.28945312 5.45808594 -20.59765625 5.40429688 C-23.73202407 5.27468016 -26.86606874 5.13971529 -30 5 C-30 4.67 -30 4.34 -30 4 C-23.46313616 3.01168844 -17.10422885 2.88116471 -10.5 2.9375 C-9.48679688 2.94201172 -8.47359375 2.94652344 -7.4296875 2.95117188 C-4.95306173 2.96285407 -2.47656343 2.97923418 0 3 C0 2.01 0 1.02 0 0 Z " fill="#A89A98" transform="translate(167,139)"/>
<path d="M0 0 C0 0.66 0 1.32 0 2 C0.66 2.33 1.32 2.66 2 3 C2.33 3.66 2.66 4.32 3 5 C2.34 5 1.68 5 1 5 C0.67 5.66 0.34 6.32 0 7 C-1.32 6.34 -2.64 5.68 -4 5 C-4 4.34 -4 3.68 -4 3 C-6.31 3.33 -8.62 3.66 -11 4 C-11 3.34 -11 2.68 -11 2 C-13.97 2 -16.94 2 -20 2 C-20 1.67 -20 1.34 -20 1 C-13.30386804 0.202163 -6.74233419 -0.12910853 0 0 Z " fill="#6B7597" transform="translate(82,182)"/>
<path d="M0 0 C0 3.96 0 7.92 0 12 C-3.465 10.02 -3.465 10.02 -7 8 C-6.65548076 4.78448712 -5.97711248 3.97940123 -3.5 1.75 C-1 0 -1 0 0 0 Z " fill="#C49C7A" transform="translate(213,115)"/>
<path d="M0 0 C0.99 0.33 1.98 0.66 3 1 C2.52433594 2.33224609 2.52433594 2.33224609 2.0390625 3.69140625 C0.43133094 9.31846672 0.53359774 15.12555359 0.375 20.9375 C0.33632812 22.09830078 0.29765625 23.25910156 0.2578125 24.45507812 C0.16404613 27.30323169 0.07834083 30.15138738 0 33 C-0.33 33 -0.66 33 -1 33 C-1.02473064 28.78247482 -1.04287453 24.56498814 -1.05493164 20.34741211 C-1.05995842 18.91283432 -1.06678079 17.47826164 -1.07543945 16.04370117 C-1.08757752 13.98094418 -1.09324486 11.91825496 -1.09765625 9.85546875 C-1.10289307 8.61434326 -1.10812988 7.37321777 -1.11352539 6.09448242 C-1 3 -1 3 0 0 Z " fill="#B6AFBB" transform="translate(123,69)"/>
<path d="M0 0 C2.19510603 0.25361783 4.38228739 0.57765908 6.5625 0.9375 C8.35880859 1.22947266 8.35880859 1.22947266 10.19140625 1.52734375 C11.11824219 1.68332031 12.04507813 1.83929688 13 2 C12.67 2.99 12.34 3.98 12 5 C7.545 5.495 7.545 5.495 3 6 C3 5.34 3 4.68 3 4 C2.34 4 1.68 4 1 4 C1 3.34 1 2.68 1 2 C0.34 1.67 -0.32 1.34 -1 1 C-0.67 0.67 -0.34 0.34 0 0 Z " fill="#616C9F" transform="translate(58,182)"/>
<path d="M0 0 C0.33 0 0.66 0 1 0 C1.50044865 2.23015467 1.99622844 4.46071492 2.4765625 6.6953125 C2.98017769 9.06143632 2.98017769 9.06143632 3.8125 11.5625 C4.10687631 15.38939207 2.52053296 18.53799557 1 22 C0.67 22 0.34 22 0 22 C0 14.74 0 7.48 0 0 Z " fill="#B9AEC2" transform="translate(127,53)"/>
<path d="M0 0 C1.65 0 3.3 0 5 0 C4.28457031 0.55171875 3.56914062 1.1034375 2.83203125 1.671875 C-0.06617425 4.05439979 -2.67801005 6.58038352 -5.3125 9.25 C-6.19550781 10.14203125 -7.07851562 11.0340625 -7.98828125 11.953125 C-8.65214844 12.62859375 -9.31601563 13.3040625 -10 14 C-10.99 13.67 -11.98 13.34 -13 13 C-9.93922229 9.15216516 -7.05957421 5.85267377 -3 3 C-2.34 3 -1.68 3 -1 3 C-0.67 2.01 -0.34 1.02 0 0 Z " fill="#C1A89B" transform="translate(180,143)"/>
<path d="M0 0 C3.42280517 1.46582015 5.56480483 3.38062255 8.125 6.0625 C10.77905 8.91571933 10.77905 8.91571933 14 11 C14 12.65 14 14.3 14 16 C12.90234298 14.90234298 11.8054267 13.80394073 10.7109375 12.703125 C9.37188284 11.37018475 8.02031941 10.04980812 6.6640625 8.734375 C5.84679687 7.93515625 5.02953125 7.1359375 4.1875 6.3125 C3.39730469 5.54550781 2.60710937 4.77851563 1.79296875 3.98828125 C0 2 0 2 0 0 Z " fill="#9998B0" transform="translate(100,138)"/>
<path d="M0 0 C0.99 0.33 1.98 0.66 3 1 C2.01 2.485 2.01 2.485 1 4 C-1.93597539 4.38384509 -4.68027373 4.603843 -7.625 4.6875 C-8.82769531 4.73874023 -8.82769531 4.73874023 -10.0546875 4.79101562 C-12.03596318 4.87356878 -14.01796037 4.93845916 -16 5 C-15.34 3.68 -14.68 2.36 -14 1 C-13.07316406 1.01160156 -12.14632812 1.02320313 -11.19140625 1.03515625 C-9.39509766 1.04869141 -9.39509766 1.04869141 -7.5625 1.0625 C-5.77005859 1.07990234 -5.77005859 1.07990234 -3.94140625 1.09765625 C-1.11126659 1.33901792 -1.11126659 1.33901792 0 0 Z " fill="#7D85A8" transform="translate(70,154)"/>
<path d="M0 0 C0.99 0.33 1.98 0.66 3 1 C1.79618552 3.49361571 0.54571278 5.68143083 -1 8 C-1.38499891 9.65549531 -1.72793135 11.3222433 -2 13 C-2.33 11.68 -2.66 10.36 -3 9 C-3.66 9 -4.32 9 -5 9 C-5.33 8.01 -5.66 7.02 -6 6 C-5.195625 5.38125 -4.39125 4.7625 -3.5625 4.125 C-0.96125481 2.25835959 -0.96125481 2.25835959 0 0 Z " fill="#7A8BB3" transform="translate(50,158)"/>
<path d="M0 0 C0.33 0 0.66 0 1 0 C0.96519531 0.85722656 0.93039063 1.71445313 0.89453125 2.59765625 C0.73726779 9.24016504 0.75150235 14.15270423 4 20 C4.33 20.66 4.66 21.32 5 22 C2.5644976 21.03689242 1.26200436 20.44739373 -0.08203125 18.15234375 C-2.08773703 12.0708722 -2.97128961 5.94257923 0 0 Z " fill="#6676AC" transform="translate(33,128)"/>
<path d="M0 0 C-9.09030134 4.40341001 -16.2123436 4.2152016 -26 3 C-26 2.67 -26 2.34 -26 2 C-24.62328125 1.92652344 -24.62328125 1.92652344 -23.21875 1.8515625 C-15.21158791 1.43161319 -15.21158791 1.43161319 -7.375 -0.125 C-4.07467163 -0.98064069 -3.08725234 -0.95718304 0 0 Z " fill="#79829F" transform="translate(78,186)"/>
<path d="M0 0 C1.65 0 3.3 0 5 0 C4.34 2.97 3.68 5.94 3 9 C1.35 9.33 -0.3 9.66 -2 10 C-1.67 8.68 -1.34 7.36 -1 6 C-0.34 6 0.32 6 1 6 C0.67 4.02 0.34 2.04 0 0 Z " fill="#6B7498" transform="translate(72,144)"/>
<path d="M0 0 C-0.33 1.32 -0.66 2.64 -1 4 C-2.0725 3.979375 -3.145 3.95875 -4.25 3.9375 C-7.14790424 3.9857984 -9.28612141 4.13155885 -12 5 C-12.66 4.01 -13.32 3.02 -14 2 C-12.22978678 1.663389 -10.45880326 1.33082707 -8.6875 1 C-7.70136719 0.814375 -6.71523437 0.62875 -5.69921875 0.4375 C-3 0 -3 0 0 0 Z " fill="#B3A49B" transform="translate(182,113)"/>
<path d="M0 0 C2 0 2 0 4.3125 2.1875 C5.199375 3.115625 6.08625 4.04375 7 5 C7.928125 5.928125 8.85625 6.85625 9.8125 7.8125 C10.534375 8.534375 11.25625 9.25625 12 10 C11.67 10.99 11.34 11.98 11 13 C6.74418856 9.87072688 3.0800315 6.29722607 0 2 C0 1.34 0 0.68 0 0 Z " fill="#E3B386" transform="translate(226,143)"/>
<path d="M0 0 C-1.423125 0.86625 -1.423125 0.86625 -2.875 1.75 C-6.39573047 4.25256313 -6.39573047 4.25256313 -8 8 C-8.20149912 10.82098771 -8.26934731 12.46130539 -7 15 C-7.66 15.99 -8.32 16.98 -9 18 C-10.70232344 12.89302969 -10.59120138 8.59624372 -8.75 3.625 C-6.13860177 -0.29209735 -4.56351658 -1.52117219 0 0 Z " fill="#56679C" transform="translate(54,119)"/>
<path d="M0 0 C2.1875 0.3125 2.1875 0.3125 4 1 C0.25 4 0.25 4 -2 4 C-2 4.66 -2 5.32 -2 6 C-3.62339805 7.70884005 -5.29319053 9.37446717 -7 11 C-7.66 11.66 -8.32 12.32 -9 13 C-8.58286812 8.1334614 -6.54534674 6.20769467 -3 3 C-2.484375 2.38125 -1.96875 1.7625 -1.4375 1.125 C-0.963125 0.75375 -0.48875 0.3825 0 0 Z " fill="#6877A6" transform="translate(43,114)"/>
<path d="M0 0 C2.38825352 3.64429796 1.94295451 6.0693436 1.125 10.25 C0.92132813 11.32765625 0.71765625 12.4053125 0.5078125 13.515625 C0.34023438 14.33546875 0.17265625 15.1553125 0 16 C-0.66 15.67 -1.32 15.34 -2 15 C-2.625 11.9375 -2.625 11.9375 -3 9 C-2.34 8.67 -1.68 8.34 -1 8 C-0.53476937 6.10466658 -0.53476937 6.10466658 -0.375 3.9375 C-0.25125 2.638125 -0.1275 1.33875 0 0 Z " fill="#5F70A8" transform="translate(34,159)"/>
<path d="M0 0 C0.66 0 1.32 0 2 0 C2 0.66 2 1.32 2 2 C2.99 2.33 3.98 2.66 5 3 C5 3.66 5 4.32 5 5 C6.98 5.99 8.96 6.98 11 8 C10.34 8.66 9.68 9.32 9 10 C1.31509847 5.88621444 1.31509847 5.88621444 0 2.1875 C0 1.465625 0 0.74375 0 0 Z " fill="#626FA2" transform="translate(47,136)"/>
<path d="M0 0 C4.95 0 9.9 0 15 0 C14 5 14 5 13 7 C12.34 7 11.68 7 11 7 C11.875 3.125 11.875 3.125 13 2 C8.71 1.67 4.42 1.34 0 1 C0 0.67 0 0.34 0 0 Z " fill="#7B83A1" transform="translate(64,142)"/>
<path d="M0 0 C-0.33 0.99 -0.66 1.98 -1 3 C-1.33 2.67 -1.66 2.34 -2 2 C-4.20004472 2.41780398 -6.38631928 2.9093008 -8.5625 3.4375 C-9.76003906 3.72496094 -10.95757812 4.01242188 -12.19140625 4.30859375 C-13.58166016 4.65083984 -13.58166016 4.65083984 -15 5 C-14.67 4.01 -14.34 3.02 -14 2 C-12.22978678 1.663389 -10.45880326 1.33082707 -8.6875 1 C-7.70136719 0.814375 -6.71523437 0.62875 -5.69921875 0.4375 C-3 0 -3 0 0 0 Z " fill="#92909D" transform="translate(114,113)"/>
<path d="M0 0 C1.65 0 3.3 0 5 0 C4.625 1.9375 4.625 1.9375 4 4 C3.01 4.495 3.01 4.495 2 5 C1.53476937 6.89533342 1.53476937 6.89533342 1.375 9.0625 C1.25125 10.361875 1.1275 11.66125 1 13 C0.67 13 0.34 13 0 13 C0 8.71 0 4.42 0 0 Z " fill="#B1A5B8" transform="translate(127,38)"/>
<path d="M0 0 C2.64 0 5.28 0 8 0 C7.67 0.99 7.34 1.98 7 3 C3.7 3 0.4 3 -3 3 C-2.01 2.67 -1.02 2.34 0 2 C0 1.34 0 0.68 0 0 Z " fill="#B19881" transform="translate(186,155)"/>
<path d="M0 0 C0 3.96 0 7.92 0 12 C-0.66 11.67 -1.32 11.34 -2 11 C-2 8.36 -2 5.72 -2 3 C-2.66 2.67 -3.32 2.34 -4 2 C-1 0 -1 0 0 0 Z " fill="#B39A81" transform="translate(213,115)"/>
<path d="M0 0 C1.9375 0.75 1.9375 0.75 4 2 C4.75 4.125 4.75 4.125 5 6 C-0.75 5.25 -0.75 5.25 -3 3 C-2.01 2.67 -1.02 2.34 0 2 C0 1.34 0 0.68 0 0 Z " fill="#85899F" transform="translate(63,116)"/>
<path d="M0 0 C1.65 0 3.3 0 5 0 C4.319375 0.763125 3.63875 1.52625 2.9375 2.3125 C2.298125 3.199375 1.65875 4.08625 1 5 C1.33 5.99 1.66 6.98 2 8 C0.68 7.34 -0.64 6.68 -2 6 C-1.34 4.02 -0.68 2.04 0 0 Z " fill="#5E7AB1" transform="translate(44,160)"/>
<path d="M0 0 C0.556875 0.721875 1.11375 1.44375 1.6875 2.1875 C3.97909334 4.97457299 6.41459857 7.48641528 9 10 C4.74278702 9.52697634 2.67053918 7.18981069 0 4 C0 2.68 0 1.36 0 0 Z " fill="#6C7BA5" transform="translate(34,175)"/>
<path d="M0 0 C0.66 0 1.32 0 2 0 C1.56802365 4.7517398 0.67230705 6.92000054 -3 10 C-3 6.13304322 -1.58090029 3.4911548 0 0 Z " fill="#88899C" transform="translate(98,171)"/>
<path d="M0 0 C0.33 0.66 0.66 1.32 1 2 C0.01 3.485 0.01 3.485 -1 5 C-1.38499891 6.65549531 -1.72793135 8.3222433 -2 10 C-2.33 10 -2.66 10 -3 10 C-3.75 7.25 -3.75 7.25 -4 4 C-2.0625 1.625 -2.0625 1.625 0 0 Z " fill="#8F9DBD" transform="translate(50,161)"/>
<path d="M0 0 C-0.66 1.32 -1.32 2.64 -2 4 C-3.32 4 -4.64 4 -6 4 C-5.67 3.01 -5.34 2.02 -5 1 C-2 0 -2 0 0 0 Z " fill="#BFA087" transform="translate(208,115)"/>
<path d="M0 0 C0.99 0.99 1.98 1.98 3 3 C-1.75 7 -1.75 7 -4 7 C-3.67 6.01 -3.34 5.02 -3 4 C-2.34 3.67 -1.68 3.34 -1 3 C-0.67 2.01 -0.34 1.02 0 0 Z " fill="#6478A7" transform="translate(38,150)"/>
<path d="M0 0 C2.475 0.495 2.475 0.495 5 1 C5.33 2.65 5.66 4.3 6 6 C5.01 6.495 5.01 6.495 4 7 C1.125 2.25 1.125 2.25 0 0 Z " fill="#D4B286" transform="translate(207,125)"/>
<path d="M0 0 C-0.33 0.99 -0.66 1.98 -1 3 C-3.0625 3.6875 -3.0625 3.6875 -5 4 C-5.66 3.01 -6.32 2.02 -7 1 C-4.53721199 -0.231394 -2.7204945 -0.07159196 0 0 Z " fill="#B89985" transform="translate(178,117)"/>
</svg>
